<?xml version="1.0" encoding="iso-8859-1"?>
<!-- Generator: Adobe Illustrator 19.0.0, SVG Export Plug-In . SVG Version: 6.00 Build 0)  -->
<svg version="1.1" id="Layer_1" xmlns="http://www.w3.org/2000/svg" xmlns:xlink="http://www.w3.org/1999/xlink" x="0px" y="0px"
	 viewBox="0 0 512.641 512.641" style="enable-background:new 0 0 512.641 512.641;" xml:space="preserve">
<path style="fill:#F8B64C;" d="M168.533,426.004c-2.133,4.267-4.267,8.533-7.467,12.8c-1.067,2.133-3.2,4.267-4.267,6.4
	c-4.267,5.333-8.533,10.667-12.8,16c-36.267,35.2-144,51.2-144,51.2s16-107.733,52.267-144c5.333-5.333,9.6-9.6,14.933-12.8
	c2.133-2.133,4.267-3.2,6.4-4.267c4.267-3.2,8.533-5.333,12.8-7.467c28.8-13.867,58.667-12.8,76.8,5.333
	S182.4,397.204,168.533,426.004z"/>
<path style="fill:#FFD15C;" d="M140.8,371.604c16,16,10.667,49.067-12.8,72.533c-36.267,36.267-97.067,37.333-97.067,37.333
	s1.067-60.8,37.333-97.067C91.733,360.937,123.733,355.604,140.8,371.604z"/>
<path style="opacity:0.1;fill:#334A5E;enable-background:new    ;" d="M168.533,426.004l-19.2-20.267l-42.667-42.667l-5.333-5.333
	L86.4,342.804c28.8-13.867,58.667-12.8,76.8,5.333S182.4,397.204,168.533,426.004z"/>
<path style="fill:#FF7058;" d="M19.2,284.137c57.6-57.6,151.467-57.6,209.067,0s57.6,151.467,0,209.067
	c-7.467,7.467-14.933,13.867-23.467,19.2c49.067-2.133,97.067-20.267,134.4-57.6c77.867-77.867,77.867-203.733,0-281.6
	s-203.733-77.867-281.6,0C20.267,210.537,1.067,258.537,0,307.604C5.333,299.07,11.733,291.604,19.2,284.137z"/>
<path style="fill:#F1543F;" d="M396.8,326.804c3.2-55.467-16-110.933-57.6-153.6c-41.6-41.6-98.133-60.8-153.6-57.6
	c-3.2,5.333-7.467,10.667-10.667,17.067l-61.867,108.8c41.6-3.2,83.2,11.733,115.2,42.667c32,32,45.867,73.6,42.667,115.2
	l108.8-61.867C386.133,333.204,391.467,330.004,396.8,326.804z"/>
<path style="fill:#F2F2F2;" d="M209.067,412.137l-108.8-108.8l92.8-161.067c61.867-108.8,188.8-163.2,311.467-134.4l0,0l0,0l0,0
	C534.4,129.47,480,256.404,370.133,319.337L209.067,412.137z"/>
<path style="fill:#40596B;" d="M503.467,143.337c10.667-42.667,11.733-89.6,0-134.4l0,0c-45.867-10.667-91.733-10.667-134.4,0
	L503.467,143.337z"/>
<polygon style="fill:#84DBFF;" points="178.133,413.204 99.2,334.27 104.533,307.604 204.8,407.87 "/>
<circle style="fill:#FFFFFF;" cx="350.933" cy="161.47" r="76.8"/>
<circle style="fill:#84DBFF;" cx="350.933" cy="161.47" r="65.067"/>
<path style="fill:#54C0EB;" d="M305.067,130.537c25.6-25.6,66.133-25.6,91.733,0c10.667,10.667,17.067,24.533,18.133,38.4
	c2.133-19.2-4.267-38.4-18.133-53.333c-25.6-25.6-66.133-25.6-91.733,0c-14.933,14.933-20.267,34.133-18.133,53.333
	C288,155.07,294.4,141.204,305.067,130.537z"/>
<g>
</g>
<g>
</g>
<g>
</g>
<g>
</g>
<g>
</g>
<g>
</g>
<g>
</g>
<g>
</g>
<g>
</g>
<g>
</g>
<g>
</g>
<g>
</g>
<g>
</g>
<g>
</g>
<g>
</g>
</svg>
